<svg width="24" height="24" viewBox="0 0 24 24" fill="none" xmlns="http://www.w3.org/2000/svg">
<path d="M12 2L13.09 6.26L17 5L14.74 8.09L19 9L14.74 9.91L17 13L13.09 11.74L12 16L10.91 11.74L7 13L9.26 9.91L5 9L9.26 8.09L7 5L10.91 6.26L12 2Z" fill="currentColor"/>
<path d="M7.5 17C9.985 17 12 14.985 12 12.5C12 10.015 9.985 8 7.5 8C6.119 8 4.87 8.684 4.134 9.75C4.753 9.285 5.516 9 6.35 9C8.559 9 10.35 10.791 10.35 13C10.35 15.209 8.559 17 6.35 17C5.516 17 4.753 16.715 4.134 16.25C4.87 17.316 6.119 18 7.5 18V17Z" fill="currentColor"/>
</svg>