<svg width="24" height="24" viewBox="0 0 24 24" fill="none" xmlns="http://www.w3.org/2000/svg">
<path d="M12 2L14 4H10L12 2Z" fill="currentColor"/>
<path d="M8 6C8 5.44772 8.44772 5 9 5H15C15.5523 5 16 5.44772 16 6V8H8V6Z" fill="currentColor"/>
<path d="M6 8H18V10H20V12H18V18C18 19.1046 17.1046 20 16 20H8C6.89543 20 6 19.1046 6 18V12H4V10H6V8Z" fill="currentColor"/>
<circle cx="9" cy="14" r="1" fill="white"/>
<circle cx="15" cy="14" r="1" fill="white"/>
<path d="M10 16H14V18H10V16Z" fill="white"/>
<path d="M3 10C3 9.44772 3.44772 9 4 9C4.55228 9 5 9.44772 5 10V11H3V10Z" fill="currentColor"/>
<path d="M19 10C19 9.44772 19.4477 9 20 9C20.5523 9 21 9.44772 21 10V11H19V10Z" fill="currentColor"/>
</svg>