<svg width="120" height="120" viewBox="0 0 120 120" xmlns="http://www.w3.org/2000/svg">
  <defs>
    <pattern id="decorative-pattern" x="0" y="0" width="120" height="120" patternUnits="userSpaceOnUse">
      <!-- Leaf element top left -->
      <g transform="translate(15,15)">
        <path d="M15,25 Q10,15 5,10 Q15,15 25,10 Q20,15 15,25 Z" fill="#527A53" opacity="0.6"/>
        <path d="M15,5 L15,25" stroke="#527A53" stroke-width="1.5" opacity="0.6"/>
        <path d="M8,12 L22,18" stroke="#527A53" stroke-width="1" opacity="0.6"/>
        <path d="M22,12 L8,18" stroke="#527A53" stroke-width="1" opacity="0.6"/>
      </g>
      
      <!-- Dome element top right -->
      <g transform="translate(75,15)">
        <path d="M5,25 Q5,10 20,10 Q35,10 35,25 Z" fill="none" stroke="#527A53" stroke-width="2" opacity="0.6"/>
        <path d="M8,22 Q15,15 22,22" stroke="#527A53" stroke-width="1.5" opacity="0.6"/>
        <path d="M12,25 Q20,18 28,25" stroke="#527A53" stroke-width="1.5" opacity="0.6"/>
        <path d="M10,15 L10,25" stroke="#527A53" stroke-width="1" opacity="0.6"/>
        <path d="M20,12 L20,25" stroke="#527A53" stroke-width="1" opacity="0.6"/>
        <path d="M30,15 L30,25" stroke="#527A53" stroke-width="1" opacity="0.6"/>
      </g>
      
      <!-- Dome element bottom left -->
      <g transform="translate(15,75)">
        <path d="M5,25 Q5,10 20,10 Q35,10 35,25 Z" fill="none" stroke="#527A53" stroke-width="2" opacity="0.6"/>
        <path d="M8,22 Q15,15 22,22" stroke="#527A53" stroke-width="1.5" opacity="0.6"/>
        <path d="M12,25 Q20,18 28,25" stroke="#527A53" stroke-width="1.5" opacity="0.6"/>
        <path d="M10,15 L10,25" stroke="#527A53" stroke-width="1" opacity="0.6"/>
        <path d="M20,12 L20,25" stroke="#527A53" stroke-width="1" opacity="0.6"/>
        <path d="M30,15 L30,25" stroke="#527A53" stroke-width="1" opacity="0.6"/>
      </g>
      
      <!-- Leaf element bottom right -->
      <g transform="translate(75,75)">
        <path d="M15,25 Q10,15 5,10 Q15,15 25,10 Q20,15 15,25 Z" fill="#527A53" opacity="0.6"/>
        <path d="M15,5 L15,25" stroke="#527A53" stroke-width="1.5" opacity="0.6"/>
        <path d="M8,12 L22,18" stroke="#527A53" stroke-width="1" opacity="0.6"/>
        <path d="M22,12 L8,18" stroke="#527A53" stroke-width="1" opacity="0.6"/>
      </g>
    </pattern>
  </defs>
  <rect width="100%" height="100%" fill="url(#decorative-pattern)"/>
</svg>